<svg width="89" height="89" viewBox="0 0 89 89" fill="none" xmlns="http://www.w3.org/2000/svg">
<path d="M38 0H0L89 89V51L38 0Z" fill="url(#paint0_linear_1187_306)"/>
<path d="M0 4V0L4 4H0Z" fill="#960000"/>
<path d="M85 89V85L89 89H85Z" fill="#960000"/>
<path d="M20.4534 8.52347L26.8881 2.08887L29.7285 4.92927C30.1698 5.37047 30.4792 5.80867 30.657 6.24377C30.8408 6.67277 30.8898 7.08337 30.804 7.47557C30.7305 7.86777 30.5283 8.22937 30.1973 8.56027C29.8296 8.92797 29.4282 9.14547 28.9931 9.21297C28.5642 9.28647 28.1352 9.19457 27.7062 8.93717L27.8625 8.74407C28.0892 9.09347 28.2302 9.44887 28.2853 9.81047C28.3466 10.1782 28.3221 10.5336 28.2118 10.8768C28.1076 11.2138 27.9146 11.5233 27.6327 11.8052C27.3079 12.13 26.9677 12.3598 26.6123 12.4946C26.263 12.6233 25.9014 12.6662 25.5276 12.6233C25.1538 12.5804 24.7861 12.4579 24.4245 12.2556C24.0691 12.0595 23.7228 11.7929 23.3858 11.4559L20.4534 8.52347ZM23.2295 8.68897L24.6359 10.0954C24.8075 10.267 24.9791 10.3834 25.1507 10.4447C25.3284 10.5121 25.5031 10.5275 25.6747 10.4907C25.8524 10.4478 26.0179 10.3497 26.1711 10.1965C26.312 10.0556 26.3947 9.89927 26.4193 9.72767C26.4499 9.56227 26.4254 9.39067 26.3457 9.21297C26.2722 9.02907 26.1466 8.84827 25.9688 8.67057L24.6084 7.31007L23.2295 8.68897ZM25.7758 6.14267L26.9248 7.29167C27.0842 7.45107 27.2435 7.56137 27.4028 7.62267C27.5744 7.68397 27.7338 7.69617 27.8809 7.65937C28.0402 7.62267 28.1873 7.53687 28.3221 7.40207C28.5182 7.20587 28.604 6.98527 28.5795 6.74017C28.5611 6.48887 28.4171 6.22847 28.1474 5.95877L27.0535 4.86497L25.7758 6.14267ZM26.8988 14.969L33.3335 8.53427L37.8194 13.0202L36.4865 14.3531L33.5174 11.3839L29.7485 15.1528L32.8096 18.2139L31.4767 19.5468L26.8988 14.969ZM30.2725 13.0661L31.541 11.7976L34.8778 15.1344L33.6093 16.403L30.2725 13.0661ZM34.8643 23.1183C34.4415 22.6955 34.1075 22.2634 33.8624 21.8222C33.6295 21.3809 33.4763 20.9336 33.4027 20.4801C33.3353 20.0205 33.3292 19.5547 33.3844 19.0828L35.4067 18.9542C35.3025 19.6712 35.3332 20.2533 35.4986 20.7007C35.6702 21.1542 35.9215 21.5464 36.2524 21.8773C36.4179 22.0428 36.5894 22.1715 36.7672 22.2634C36.9449 22.3553 37.1103 22.3982 37.2636 22.3921C37.4229 22.3799 37.5638 22.3124 37.6864 22.1899C37.7783 22.098 37.8365 21.9907 37.8611 21.8681C37.8917 21.7517 37.8948 21.6261 37.8702 21.4913C37.8457 21.3564 37.7998 21.2124 37.7324 21.0592C37.6711 20.8999 37.5945 20.7436 37.5026 20.5904C37.4168 20.4311 37.3218 20.2748 37.2176 20.1216C36.9418 19.6865 36.7304 19.279 36.5833 18.899C36.4362 18.519 36.3566 18.1575 36.3443 17.8143C36.3443 17.4711 36.4087 17.1494 36.5374 16.8491C36.6722 16.5427 36.8744 16.2547 37.1441 15.985C37.4321 15.697 37.7599 15.4978 38.1276 15.3875C38.5076 15.2772 38.8937 15.2466 39.2859 15.2956C39.6903 15.3446 40.0856 15.4702 40.4717 15.6725C40.8639 15.8686 41.2193 16.126 41.538 16.4446C41.9609 16.8675 42.2765 17.275 42.4848 17.6672C42.7054 18.0594 42.8403 18.4455 42.8893 18.8255C42.9444 19.2115 42.9322 19.5976 42.8525 19.9837L40.9589 19.9469C40.9895 19.6589 40.9803 19.3862 40.9313 19.1288C40.8884 18.8776 40.8087 18.6385 40.6923 18.4118C40.582 18.1912 40.438 17.992 40.2603 17.8143C40.0764 17.6304 39.8926 17.4956 39.7087 17.4098C39.5371 17.324 39.3717 17.2873 39.2123 17.2995C39.0591 17.3057 38.9243 17.3669 38.8079 17.4834C38.7037 17.5876 38.6455 17.7071 38.6332 17.8419C38.621 17.9767 38.6363 18.1268 38.6792 18.2923C38.7282 18.4516 38.7987 18.6202 38.8906 18.7979C38.9887 18.9695 39.099 19.1411 39.2215 19.3127C39.4912 19.7171 39.7057 20.1093 39.865 20.4893C40.0305 20.8754 40.1316 21.2461 40.1683 21.6016C40.2112 21.9631 40.1745 22.3063 40.058 22.6311C39.9539 22.9559 39.7578 23.2623 39.4697 23.5503C39.0224 23.9977 38.5321 24.2674 37.9989 24.3593C37.478 24.4512 36.9449 24.3899 36.3995 24.1754C35.8663 23.9609 35.3546 23.6086 34.8643 23.1183ZM40.0469 28.117L45.1027 23.0612L43.1907 21.1492L44.5696 19.7703L50.0023 25.203L48.6234 26.5819L46.6654 24.6239L41.6096 29.6797L40.0469 28.117ZM49.6583 37.9123C49.2355 37.4895 48.9015 37.0574 48.6564 36.6162C48.4235 36.1749 48.2703 35.7276 48.1967 35.2741C48.1293 34.8145 48.1232 34.3487 48.1784 33.8768L50.2007 33.7482C50.0965 34.4652 50.1271 35.0473 50.2926 35.4947C50.4642 35.9482 50.7155 36.3404 51.0464 36.6713C51.2119 36.8368 51.3834 36.9655 51.5612 37.0574C51.7389 37.1493 51.9043 37.1922 52.0576 37.1861C52.2169 37.1738 52.3578 37.1064 52.4804 36.9839C52.5723 36.8919 52.6305 36.7847 52.6551 36.6621C52.6857 36.5457 52.6888 36.4201 52.6642 36.2853C52.6397 36.1504 52.5938 36.0064 52.5264 35.8532C52.4651 35.6939 52.3885 35.5376 52.2966 35.3844C52.2108 35.2251 52.1158 35.0688 52.0116 34.9156C51.7358 34.4805 51.5244 34.073 51.3773 33.693C51.2302 33.313 51.1506 32.9515 51.1383 32.6083C51.1383 32.2651 51.2027 31.9434 51.3314 31.6431C51.4662 31.3367 51.6684 31.0487 51.9381 30.779C52.2261 30.491 52.5539 30.2918 52.9216 30.1815C53.3016 30.0712 53.6877 30.0406 54.0799 30.0896C54.4843 30.1386 54.8796 30.2642 55.2657 30.4665C55.6579 30.6626 56.0133 30.92 56.332 31.2386C56.7549 31.6615 57.0705 32.069 57.2788 32.4612C57.4994 32.8534 57.6343 33.2395 57.6833 33.6195C57.7384 34.0055 57.7262 34.3916 57.6465 34.7777L55.7529 34.7409C55.7835 34.4529 55.7743 34.1802 55.7253 33.9228C55.6824 33.6715 55.6027 33.4325 55.4863 33.2058C55.376 32.9852 55.232 32.786 55.0543 32.6083C54.8704 32.4244 54.6866 32.2896 54.5027 32.2038C54.3311 32.118 54.1657 32.0813 54.0063 32.0935C53.8531 32.0997 53.7183 32.1609 53.6019 32.2774C53.4977 32.3816 53.4395 32.5011 53.4272 32.6359C53.415 32.7707 53.4303 32.9208 53.4732 33.0863C53.5222 33.2456 53.5927 33.4142 53.6846 33.5919C53.7827 33.7635 53.893 33.9351 54.0155 34.1067C54.2852 34.5111 54.4997 34.9033 54.659 35.2833C54.8245 35.6694 54.9256 36.0401 54.9623 36.3956C55.0052 36.7571 54.9685 37.1003 54.852 37.4251C54.7479 37.7499 54.5518 38.0563 54.2637 38.3443C53.8164 38.7917 53.3261 39.0614 52.7929 39.1533C52.272 39.2452 51.7389 39.1839 51.1935 38.9694C50.6603 38.7549 50.1486 38.4026 49.6583 37.9123ZM53.4437 41.5138L59.8783 35.0791L64.3642 39.565L63.0313 40.8979L60.0622 37.9288L56.2933 41.6976L59.3544 44.7587L58.0215 46.0916L53.4437 41.5138ZM56.8173 39.611L58.0858 38.3424L61.4227 41.6792L60.1541 42.9478L56.8173 39.611ZM59.3684 47.4386L65.8031 41.0039L67.3658 42.5666L62.31 47.6224L65.178 50.4904L63.7992 51.8693L59.3684 47.4386ZM64.9701 53.0402L71.4047 46.6055L72.9674 48.1682L67.9116 53.224L70.7796 56.092L69.4008 57.4709L64.9701 53.0402ZM70.5717 58.6416L77.006 52.2071L81.492 56.693L80.159 58.0256L77.19 55.0568L73.4213 58.8256L76.4824 61.8866L75.1495 63.2196L70.5717 58.6416ZM73.9453 56.739L75.2138 55.4704L78.551 58.8076L77.282 60.0756L73.9453 56.739ZM76.4964 64.5666L82.931 58.1316L85.827 61.0276C86.237 61.4376 86.519 61.8976 86.672 62.4066C86.832 62.9216 86.85 63.4296 86.728 63.9326C86.611 64.4286 86.357 64.8726 85.965 65.2656C85.56 65.6696 85.101 65.9396 84.586 66.0746C84.077 66.2026 83.565 66.1936 83.051 66.0466C82.536 65.8996 82.07 65.6176 81.653 65.2006L80.247 63.7946L77.986 66.0556L76.4964 64.5666ZM80.063 68.1336L81.332 63.5926L83.161 64.9616L81.846 69.9166L80.063 68.1336ZM81.442 62.5996L82.711 63.8676C82.87 64.0276 83.041 64.1316 83.225 64.1806C83.421 64.2296 83.614 64.2206 83.804 64.1526C84.001 64.0916 84.181 63.9786 84.347 63.8126C84.512 63.6476 84.619 63.4666 84.668 63.2706C84.724 63.0686 84.714 62.8626 84.641 62.6546C84.573 62.4526 84.442 62.2536 84.246 62.0566L83.115 60.9266L81.442 62.5996Z" fill="white"/>
<defs>
<linearGradient id="paint0_linear_1187_306" x1="89" y1="52.5" x2="0" y2="0" gradientUnits="userSpaceOnUse">
<stop stop-color="#F09000"/>
<stop offset="1" stop-color="#FFC163"/>
</linearGradient>
</defs>
</svg>