<svg width="89" height="89" viewBox="0 0 89 89" fill="none" xmlns="http://www.w3.org/2000/svg">
<path d="M38 0H0L89 89V51L38 0Z" fill="#F01818"/>
<path d="M0 4V0L4 4H0Z" fill="#960000"/>
<path d="M85 89V85L89 89H85Z" fill="#960000"/>
<path d="M26.3347 14.4054L32.7693 7.9707L35.5454 10.7468C35.9499 11.1513 36.2165 11.6017 36.3452 12.0981C36.48 12.6006 36.48 13.1031 36.3452 13.6056C36.2165 14.1143 35.953 14.5678 35.5546 14.9661C35.1379 15.3828 34.6691 15.6617 34.1482 15.8026C33.6396 15.9436 33.1309 15.9497 32.6223 15.821C32.1197 15.6984 31.6663 15.4349 31.2618 15.0305L30.0484 13.8171L27.8974 15.9681L26.3347 14.4054ZM31.3905 12.4198L32.4108 13.4402C32.5457 13.575 32.7019 13.6639 32.8796 13.7068C33.0574 13.7497 33.2382 13.7466 33.422 13.6976C33.6058 13.6485 33.7744 13.5474 33.9276 13.3942C34.0869 13.2349 34.188 13.0664 34.2309 12.8886C34.2738 12.7109 34.2708 12.5363 34.2217 12.3647C34.1727 12.1931 34.0808 12.0399 33.946 11.905L32.9256 10.8847L31.3905 12.4198ZM32.421 20.4917L38.8557 14.0571L41.7513 16.9527C42.1619 17.3633 42.4438 17.8229 42.597 18.3315C42.7563 18.8463 42.7747 19.355 42.6522 19.8575C42.5357 20.3539 42.2814 20.7982 41.8892 21.1904C41.4847 21.5948 41.0251 21.8645 40.5103 21.9993C40.0017 22.128 39.49 22.1188 38.9752 21.9717C38.4604 21.8246 37.9947 21.5427 37.578 21.126L36.1715 19.7196L33.9102 21.9809L32.421 20.4917ZM35.9877 24.0584L37.2562 19.5173L39.0855 20.887L37.771 25.8417L35.9877 24.0584ZM37.3665 18.5246L38.6351 19.7931C38.7944 19.9525 38.966 20.0566 39.1499 20.1057C39.346 20.1547 39.539 20.1455 39.729 20.0781C39.9251 20.0168 40.1059 19.9034 40.2713 19.738C40.4368 19.5725 40.544 19.3917 40.5931 19.1956C40.6482 18.9934 40.639 18.7881 40.5655 18.5797C40.4981 18.3775 40.3663 18.1783 40.1702 17.9822L39.0396 16.8516L37.3665 18.5246ZM38.8755 26.9462L45.3101 20.5115L49.796 24.9974L48.4631 26.3303L45.494 23.3611L41.7251 27.13L44.7862 30.1911L43.4533 31.524L38.8755 26.9462ZM42.2491 25.0433L43.5176 23.7748L46.8544 27.1116L45.5859 28.3802L42.2491 25.0433ZM44.8002 32.8709L51.2349 26.4363L52.6322 27.8335L51.1614 33.9924L50.1686 32.9813L56.3459 31.5472L57.688 32.8893L51.2533 39.324L49.7365 37.8073L51.7405 35.8033C52.292 35.2518 52.8007 34.7676 53.2664 34.3509C53.7383 33.9403 54.2255 33.5512 54.728 33.1835L54.4247 33.8361L49.8744 34.8197L49.2677 34.213L50.2697 29.718L50.9408 29.3962C50.5976 29.8742 50.2207 30.343 49.8101 30.8027C49.4118 31.2623 48.9154 31.7893 48.3209 32.3837L46.317 34.3877L44.8002 32.8709ZM52.7418 40.8125L54.0563 39.498L55.141 40.5827L58.9467 36.7771L57.862 35.6924L59.1765 34.3779L62.9178 38.1192L61.6033 39.4337L60.5094 38.3398L56.7037 42.1454L57.7976 43.2393L56.4831 44.5538L52.7418 40.8125ZM60.626 48.807C60.0929 48.2739 59.7252 47.6917 59.5229 47.0605C59.3268 46.4231 59.2992 45.795 59.4402 45.176C59.5873 44.5632 59.9059 44.0117 60.3962 43.5214L64.3581 39.5595L65.9392 41.1406L62.06 45.0198C61.8271 45.2526 61.6678 45.5162 61.582 45.8103C61.5024 46.0983 61.4962 46.3864 61.5636 46.6744C61.6372 46.9563 61.7843 47.2076 62.0049 47.4282C62.2377 47.661 62.4951 47.8142 62.777 47.8878C63.0712 47.9613 63.3653 47.9613 63.6595 47.8878C63.9598 47.8081 64.2264 47.6519 64.4592 47.419L68.3384 43.5398L69.8644 45.0657L65.9024 49.0276C65.4122 49.5179 64.8576 49.8335 64.2386 49.9745C63.6258 50.1215 63.0007 50.097 62.3634 49.9009C61.7322 49.6987 61.153 49.3341 60.626 48.807ZM64.9984 53.0691L71.433 46.6344L72.8303 48.0316L71.3595 54.1905L70.3667 53.1794L76.544 51.7454L77.886 53.0874L71.4514 59.5217L69.9347 58.0057L71.9386 56.0017C72.4902 55.4499 72.9988 54.9658 73.4645 54.549C73.9364 54.1384 74.4236 53.7493 74.9261 53.3816L74.6228 54.0343L70.0726 55.0178L69.4659 54.4112L70.4678 49.9161L71.1389 49.5943C70.7957 50.0723 70.4188 50.5412 70.0082 51.0008C69.6099 51.4604 69.1135 51.9874 68.519 52.5819L66.5151 54.5858L64.9984 53.0691Z" fill="white"/>
</svg>